<?xml version="1.0" encoding="UTF-8" standalone="no"?>
<!DOCTYPE svg PUBLIC "-//W3C//DTD SVG 1.1//EN" "http://www.w3.org/Graphics/SVG/1.1/DTD/svg11.dtd">
<svg version="1.1" xmlns="http://www.w3.org/2000/svg" xmlns:xlink="http://www.w3.org/1999/xlink" preserveAspectRatio="xMidYMid meet" viewBox="0 0 640 640" width="640" height="640"><defs><path d="M926.13 124.05C926.13 179.74 876.47 224.95 815.32 224.95C754.16 224.95 704.5 179.74 704.5 124.05C704.5 68.37 754.16 23.15 815.32 23.15C876.47 23.15 926.13 68.37 926.13 124.05Z" id="f2T8lYmxsI"></path><linearGradient id="gradienta72zrzwEu" gradientUnits="userSpaceOnUse" x1="815.32" y1="23.15" x2="815.32" y2="224.95"><stop style="stop-color: #5d3bd4;stop-opacity: 0.15" offset="0%"></stop><stop style="stop-color: #010000;stop-opacity: 1" offset="100%"></stop></linearGradient><path d="M94.23 271.44C94.23 319.92 55.28 359.28 7.3 359.28C-40.68 359.28 -79.64 319.92 -79.64 271.44C-79.64 222.96 -40.68 183.6 7.3 183.6C55.28 183.6 94.23 222.96 94.23 271.44Z" id="fbbEm24UQ"></path><linearGradient id="gradientazZ7BdnD6" gradientUnits="userSpaceOnUse" x1="7.3" y1="183.6" x2="7.3" y2="359.28"><stop style="stop-color: #49bfdd;stop-opacity: 1" offset="0%"></stop><stop style="stop-color: #010000;stop-opacity: 1" offset="100%"></stop></linearGradient></defs><g><g><g><use xlink:href="#f2T8lYmxsI" opacity="1" fill="url(#gradienta72zrzwEu)"></use></g><g><use xlink:href="#fbbEm24UQ" opacity="0.45" fill="url(#gradientazZ7BdnD6)"></use></g></g></g></svg>